<?xml version="1.0" encoding="utf-8"?>
<!-- Generator: Adobe Illustrator 27.1.1, SVG Export Plug-In . SVG Version: 6.00 Build 0)  -->
<svg version="1.1" id="Layer_1" xmlns="http://www.w3.org/2000/svg" xmlns:xlink="http://www.w3.org/1999/xlink" x="0px" y="0px"
	 viewBox="0 0 200 186.1" style="enable-background:new 0 0 200 186.1;" xml:space="preserve">
<g>
	<path d="M191.3,137.5C191.3,137.4,191.2,137.4,191.3,137.5C129,107.7,66.8,78.2,4.6,48.6c-0.6-0.3-2.8-1.1-3.1-1.6
		c-0.6-1,0.9-4,0.9-5c0-0.5,0.6-1.9,1.1-2.1C5,39.3,6.1,39.2,7,39.6c5.6,2.3,10.9,5,16.3,7.6c56.8,27,113.6,54,170.3,81.1
		c0.6,0.3,1.3,0.6,1.9,1C193.8,132.7,193.1,133.9,191.3,137.5z"/>
	<path d="M199,75.9c-0.5,1.7-0.9,3.4-1.4,5.1c-5,16.9-21.9,26.9-39.2,23.3c-17.2-3.6-28.4-19.8-26.2-37.8
		c2.1-16.6,17.4-29.2,34.5-28.5c15.3,0.6,28,11.2,31.5,26.2c0.2,0.8,0.5,1.7,0.8,2.5C199,69.7,199,72.8,199,75.9z M165.7,44.2
		c-14.8-0.5-27.2,11.5-27.6,26.5c-0.4,15.2,11.4,27.8,26.4,28.2c15.1,0.4,27.9-11.5,28.3-26.4C193.3,57,181.4,44.6,165.7,44.2z"/>
	<path d="M96.2,185.5c-14.8,0-29.7,0-44.5,0c-5.5,0-6.6-1.8-3.9-6.4c14.9-25.8,29.8-51.6,44.7-77.4c2.7-4.6,4.9-4.6,7.6,0
		c14.9,25.8,29.8,51.6,44.7,77.4c2.7,4.6,1.6,6.4-3.9,6.4C125.9,185.5,111.1,185.5,96.2,185.5z M54.9,179.2c27.8,0,55,0,82.7,0
		c-13.8-24-27.4-47.6-41.4-71.7C82.3,131.7,68.7,155.2,54.9,179.2z"/>
	<path d="M39.2,19.9c-0.1,10.2-8.5,18.4-18.7,18.3c-10-0.1-18.2-8.5-18.1-18.6C2.4,9.5,10.9,1.2,21.1,1.3
		C31.1,1.5,39.3,9.8,39.2,19.9z M20.7,7.5C14,7.5,8.5,13,8.5,19.7c0,6.8,5.7,12.5,12.5,12.4c6.7-0.1,12.1-5.7,12.1-12.4
		C33,13,27.4,7.5,20.7,7.5z"/>
</g>
</svg>
