<?xml version="1.0" encoding="utf-8"?>
<!-- Generator: Adobe Illustrator 27.1.1, SVG Export Plug-In . SVG Version: 6.00 Build 0)  -->
<svg version="1.1" id="Layer_1" xmlns="http://www.w3.org/2000/svg" xmlns:xlink="http://www.w3.org/1999/xlink" x="0px" y="0px"
	 viewBox="0 0 200 200" style="enable-background:new 0 0 200 200;" xml:space="preserve">
<style type="text/css">
	.st0{fill:#FFFFFF;}
</style>
<g>
	<path class="st0" d="M0,100.8c5,0,10.1-0.7,15,0.1c2.5,0.4,5.6,2.8,6.8,5.2c1.9,3.8,4.8,5.7,8.3,7.1c6.8,2.7,11.5,6.7,10.6,15.4
		c2.8-0.5,5.2-0.9,7.5-1.4c18.3-3.9,36.6-7.9,55-11.8c9.2-2,14.4,1.3,16.7,10.5c0.6,2.4,1.2,4.8,2,7.6c1.5-0.5,2.8-0.8,4.1-1.3
		c19-7.2,38-14.4,56.9-21.6c7.3-2.8,11.9-1.7,17,4.2c0,8.6,0,17.2,0,25.8c-3,2.4-5.8,5.2-9.2,7c-27.4,15-55,29.9-82.5,44.8
		c-4.4,2.4-8.7,5-13,7.6c-5.2,0-10.4,0-15.6,0c-0.7-0.6-1.3-1.2-2.1-1.7c-10.4-6.3-20.9-12.6-31.3-19c-1.6-1-3.3-1.9-5.3-3.1
		c-0.7,6.1-4.4,9-9.1,11.2c-2.8,1.3-5.8,2.6-8,4.6c-2.4,2.2-4,5.2-5.9,7.9c-6,0-12,0-18,0C0,166.9,0,133.9,0,100.8z M40.8,151.6
		C40.8,151.6,40.8,151.6,40.8,151.6c0,3.6,0.2,7.3,0,10.9c-0.1,2.4,0.7,3.8,2.8,5c13.6,7.9,27.2,15.8,40.7,23.9
		c2.4,1.4,4.2,1.1,6.4-0.2c30.6-16.7,61.3-33.2,92-49.9c11-6,11-6,10.2-18.6c0-0.1,0-0.3,0-0.4c-0.4-3.8-3-5.6-6.5-4.3
		c-20.4,7.5-40.8,15-61.2,22.6c-1,0.4-2.2,1.5-2.5,2.5c-1.5,5.1-5.1,8.1-10,9.5c-7.8,2.2-15.6,4.2-23.4,6.2
		c-1.1,0.3-2.6,0.4-3.3-0.1c-1.2-1-2.9-2.8-2.6-3.8c0.5-1.7,2.1-3.7,3.7-4.2c7.7-2.4,15.5-4.4,23.3-6.4c3.3-0.9,5.2-2.7,4.3-6.2
		c-1.1-4.4-2.5-8.8-4.1-13c-0.9-2.4-2.7-3.7-5.6-3c-20.7,4.9-41.3,9.7-61.9,14.7c-1,0.2-2.3,2-2.4,3.1
		C40.6,143.8,40.8,147.7,40.8,151.6z M7.2,192.4c6.6,1.3,8.2,0.1,8.2-6.1c0-23.8,0-47.6,0-71.3c0-5.9-2.3-7.5-8.2-5.6
		C7.2,136.9,7.2,164.5,7.2,192.4z M24.1,181.2c8.2-2.9,8.2-2.9,8.3-10.8c0-13.5,0-27.1,0-40.6c0-6-2-8.2-8.2-9.4
		C24.1,140.6,24.1,160.7,24.1,181.2z"/>
	<path class="st0" d="M200,99.2c-5.1,0-10.4,0.7-15.4-0.2c-2.6-0.4-5.4-3.2-6.9-5.7c-1.6-2.8-3.5-4.6-6.4-5.8
		c-1.7-0.7-3.3-1.6-4.9-2.4c-4.8-2.1-7.1-5.8-7.3-11c0-0.7-0.2-1.5-0.4-2.7c-8.3,1.8-16.4,3.4-24.5,5.2c-12.6,2.7-25.2,5.4-37.8,8.1
		c-8.9,1.9-14.2-1.5-16.4-10.4c-0.6-2.5-1.3-5-2-7.9c-5.9,2.2-11.5,4.3-17.1,6.4c-14.6,5.5-29.2,11-43.8,16.6
		C10.6,91.8,4.9,91.1,0,85.9c0-8.8,0-17.7,0-26.6c1.6-1.3,3-2.9,4.8-3.9C36.3,38.4,67.9,21.3,99.4,4.2c2.4-1.3,4.6-2.8,6.9-4.2
		c4.7,0,9.4,0,14.1,0c0.7,0.6,1.3,1.2,2.1,1.6c11.1,6.7,22.2,13.4,33.3,20.2c1,0.6,2,1.1,3.4,1.8c0.5-6,4.3-8.9,9-11
		c2.8-1.3,5.7-2.6,7.9-4.7c2.4-2.2,4-5.2,5.9-7.9c6,0,12,0,18,0C200,33.1,200,66.2,200,99.2z M159.2,48.1c0-3.5-0.2-7,0.1-10.5
		c0.2-2.6-0.8-4-3-5.3c-13.2-7.9-26.4-15.8-39.4-23.8c-2.6-1.6-4.7-1.3-7.2,0.1C78.9,25.3,48.3,42.4,17.2,58.4
		C8.9,62.7,5.8,67.6,7,76.4c0.7,5.2,2.7,7,7.7,5.2C34.5,74,54.3,66.5,74,58.8c1.4-0.5,2.9-2.1,3.4-3.5c1.5-3.8,4-6.4,7.9-7.4
		c8.3-2.2,16.6-4.4,24.9-6.5c1.1-0.3,2.7-0.6,3.3-0.1c1.3,1,3.1,2.9,2.9,3.9c-0.4,1.6-2.1,3.7-3.7,4.2c-7.7,2.4-15.5,4.3-23.3,6.4
		c-3.8,1-5.2,3-4.3,6.5c1.1,4.1,2.4,8.2,3.8,12.3c0.9,2.6,2.6,4.1,5.7,3.4c20.6-4.9,41.3-9.7,61.9-14.6c1-0.2,2.3-2,2.4-3.1
		C159.4,56.2,159.2,52.1,159.2,48.1z M192.7,7.4c-7.1-0.7-8.2,0.2-8.2,6.7c0,23.6,0,47.3,0,71c0,6,2.1,7.4,8.2,5.8
		C192.7,63.1,192.7,35.3,192.7,7.4z M175.8,18.7c-8.2,3.2-8.2,3.2-8.2,11c0,13.1,0,26.3,0,39.4c0,7.3,0.7,8.2,8.2,10.6
		C175.8,59.5,175.8,39.2,175.8,18.7z"/>
</g>
</svg>
