<?xml version="1.0" encoding="utf-8"?>
<!-- Generator: Adobe Illustrator 27.1.1, SVG Export Plug-In . SVG Version: 6.00 Build 0)  -->
<svg version="1.1" id="Layer_1" xmlns="http://www.w3.org/2000/svg" xmlns:xlink="http://www.w3.org/1999/xlink" x="0px" y="0px"
	 viewBox="0 0 200 200" style="enable-background:new 0 0 200 200;" xml:space="preserve">
<g>
	<path d="M199.8,147.6c-1.9-5.3-4.4-11.2-11.2-14c-1.7-0.7-3.4-1.1-5.2-1.5l0-16.2c0-13.2,0-26.4,0-39.7c0-2.3,0-8.5-5.9-8.5
		c-1.2,0-2.5,0.3-4.6,1c-0.7,0.2-1.5,0.4-2.2,0.4c-1.8,0-3.3-0.8-4.3-2.2c-1.5-2.1-1.5-4.6,0-6.7c1.1-1.4,2.5-2.1,4.3-2.1
		c0.7,0,1.5,0.1,2.2,0.4c2,0.7,3.3,0.9,4.5,0.9c3.9,0,5.9-2.8,5.9-8.2c0-3.3,0-6.6,0-9.8c0-5.5,0-11.2,0-16.8c0-2.6-0.6-4.5-2-5.9
		c-1.4-1.4-3.3-2.1-5.8-2.1l-0.2,0c-3.2,0-6.5,0.1-10.9,0.1c-1.9,0-9.5,0-11.4,0c-2.1,0-4.1,0-6.2,0c-1.3,0-5.3,0-7.1,3.2
		c-1.8,3.1,0.2,6.7,0.9,7.8c1.3,2.2,2.2,5.3-0.7,7.7c-0.9,0.8-2.1,1.2-3.4,1.2c-1.3,0-2.6-0.4-3.5-1.2c-2.3-1.9-2.5-4.5-0.7-7.8
		c0.6-1.1,2.6-4.6,0.8-7.7c-1.8-3.1-5.9-3.2-7.2-3.2c-9,0-18.1,0-27.1,0l-31,0C66.6,8.8,62,3.5,54.6,1.1c0,0,0,0,0,0
		c-0.2-0.2-0.4-0.3-0.6-0.4L53,0h-7.3l-0.8,0.5c-0.6,0.3-1.3,0.7-2,1c-1.9,0.9-4.1,1.9-5.8,3.7c-3.5,3.6-5.4,6.9-5.7,10
		c-0.1,0.8-0.2,1.2-0.3,1.4c-0.2,0-0.6,0.1-1.3,0.1c-0.3,0-0.5,0-0.8,0c-2.9-0.1-5.9-0.1-9.2-0.1c-3.3,0-6.9,0-10.8,0.1
		c-1.8,0-3.3,0.6-4.7,1.1c-0.5,0.2-1,0.3-1.4,0.5L0,19v181h181l0.8-2.7c0.1-0.4,0.3-0.9,0.5-1.4c0.5-1.4,1-2.9,1.1-4.7
		c0.1-6.4,0.1-13.2,0-22.1c7.9-1,13.3-5.7,15.6-13.6c0.1-0.4,0.3-0.9,0.5-1.4c0.1-0.3,0.2-0.5,0.3-0.8l0.2-0.6v-4.3L199.8,147.6z
		 M43.9,19.4l0-0.2c0-2.4,0.9-4,3.1-5.1c0.9-0.4,1.7-0.7,2.5-0.7c1,0,2.1,0.4,3.1,1.1c2,1.5,2.7,3.2,2.3,5.5c-0.5,2.6-0.7,5.2,1,7.2
		c1.7,2,4.3,2.2,6.9,2.3l0.9,0c3.9,0,7.9,0.1,11.8,0.1c3.7,0,7,0,10-0.1c0,0,0.3,0,0.3,0c0,0,0,0,0,0.1c-0.2,4.1-0.1,8.2-0.1,12.1
		c0,1.8,0,3.7,0,5.5c-17.4,0.8-20.1,11.6-20.2,18.1c0,5.3,1.5,9.7,4.7,12.8c3.4,3.4,8.6,5.4,15.5,5.8c0,0.3,0,0.6,0,0.9
		c0,5.5,0,11.1-0.1,16.7c-4.4,0.1-8.8,0.1-12.9,0.1l-7,0c-1.8,0-3.6,0-5.4,0c-1.5,0-5.6,0-7.4,3.2c-1.8,3.2,0.3,6.8,1.1,8.2
		c1.6,2.8,1.3,5.6-0.9,7.4c-1,0.8-2.2,1.2-3.5,1.2c-1.3,0-2.5-0.4-3.5-1.2c-2.2-1.8-2.5-4.7-0.9-7.4c0.8-1.4,2.9-4.9,1.1-8.1
		c-1.8-3.2-5.9-3.2-7.5-3.2c-2.9,0-5.8,0-8.8,0c-2.8,0-16.2,0-16.2,0V29.6l20,0c4.1,0,6.6,0,8.5-2C44,25.7,44,23.2,43.9,19.4z
		 M170.4,43.9l0,1.3c-7,1.5-19.1,5.6-18.2,19.3c0.6,9.9,7.1,16.2,18,17.6v19.5l-11.9,0c-3.5,0-7,0-10.5,0c-2,0-6,0-7.8,3.1
		c-1.8,3.1,0.1,6.6,1.2,8.5c1.4,2.6,1,5.4-1.1,7.2c-1,0.8-2.2,1.3-3.5,1.3c-1.3,0-2.5-0.4-3.5-1.3c-2.1-1.8-2.5-4.6-1.1-7.2
		c1-1.7,3-5.3,1.2-8.5c-1.8-3.1-5.9-3.1-7.9-3.1c-2.3,0-4.6,0-6.9,0c-2.7,0-5.4,0-8.2,0c-4.4,0-8,0-11.3,0.1c-0.1,0-0.2,0-0.3,0
		c-0.1,0-0.1,0-0.1,0c0-0.2,0-0.4,0-0.7c0.2-7,0.1-14.1,0.1-20.9l0-4c0-7.2-4.2-8-6-8c-1.5,0-3.2,0.6-5.2,1.8
		c-1.2,0.7-2.4,1.1-3.6,1.1c-1.5,0-2.9-0.6-3.9-1.8c-1.7-2-1.7-5.1,0-7.1c1.1-1.3,2.4-1.9,3.8-1.9c1.1,0,2.4,0.4,3.7,1.1
		c2,1.2,3.7,1.7,5.2,1.7c1.8,0,5.9-0.8,6-8c0-5.6,0.1-11.3,0.1-16.9c0-2.7,0-5.4,0-8.2h19.7c0.7,7.4,3.6,19.8,18.1,19.8
		c0.2,0,0.4,0,0.6,0c10.9-0.2,16.8-7,17.8-20.1l5.3,0c3.1,0,6.6,0,10.3,0.1C170.4,34.4,170.4,39.2,170.4,43.9z M85.3,186.4H13.7
		v-71.3h17.1c-0.2,4.5,0.6,10.9,6.6,15.2c3.8,2.7,8.4,4.4,12.4,4.5l0.3,0c5,0,9.2-1.7,12.2-4.8c3.3-3.4,5.1-8.4,5.5-14.9h17.6v3.7
		c0,2.1,0,4.2,0,6.3c0,4.9,0,9.9,0,14.8c0.1,7.3,4.3,8.1,6.1,8.1c1.6,0,3.3-0.6,5.3-1.8c1.2-0.7,2.4-1.1,3.5-1.1
		c1.3,0,2.6,0.6,3.7,1.7c1.8,1.8,2.1,4.5,0.7,6.7c-1,1.6-2.7,2.5-4.6,2.5c-0.9,0-1.9-0.2-2.7-0.7c-2.7-1.4-4.4-2-6-2
		c-5.9,0-5.9,6.7-5.9,9.3c0,5.4,0,10.8,0,16.3L85.3,186.4z M170.6,164.7c0,5.9,0,11.7,0,17.7l0,4H98.7v-17.3c0.5,0,1,0,1.5,0
		c6.1,0,10.9-2.3,14.1-6.9c2.6-3.6,4.2-8.5,4.2-12.8c0.1-4.6-1.3-8.4-4.2-11.3c-3.4-3.4-8.5-5.4-15.7-6v-17.2h19.2
		c-0.2,4.5,0.7,10.7,6.4,15c3.7,2.8,8.3,4.5,12.2,4.7c0.3,0,0.6,0,1,0c10.1,0,15.9-6.7,17.3-20c0.4,0,0.8,0,1.2,0c1.6,0,3.1,0,4.7,0
		c2.7,0,6.2,0,9.8,0.1c0.1,4.8,0.1,9.8,0.1,14.5c0,2.6,0,5.1,0,7.7c0,2.7,0,8.4,6.1,8.4c0.9,0,2-0.1,3.4-0.3
		c0.4-0.1,0.7-0.1,1.1-0.1c1.8,0,3.2,0.8,4.3,2.4c1.4,2.1,1.5,4,0.1,6c-1.1,1.8-2.5,2.6-4.4,2.6c-0.3,0-0.6,0-0.9-0.1
		c-1.4-0.2-2.4-0.3-3.4-0.3C170.6,155.8,170.6,161.4,170.6,164.7z"/>
	<path d="M20.4,41.3c0,3.4-0.2,6.8,0.1,10.1c0.1,1.1,1.6,2,2.5,3c0.9-1,2.3-1.9,2.5-3.1c0.4-2.4,0.1-4.9,0.1-7.9
		c6.6,0,12.3,0.2,18-0.1c1.2-0.1,2.2-1.8,3.4-2.7c-1.1-0.9-2.2-2.6-3.4-2.7c-6.6-0.3-13.3-0.1-19.9-0.1C21.5,37.8,20.4,39,20.4,41.3
		z"/>
	<path d="M25.7,66.7c0.2-2.2,0.7-5.5-2.7-5.3c-1.2,0.1-2.3,3.2-3.4,4.9c1.4,2.7-0.5,6.4,3.4,6.4C27.1,72.8,25.5,69,25.7,66.7z"/>
	<path d="M34.5,174.5c-1.8-0.5-3.7-0.4-5.6-0.3c-2.2,0.1-3.2-0.7-3.1-3c0.1-2.4,0-4.8,0-7.1c0,0-0.1,0-0.1,0c0-2.8,0.2-5.5-0.1-8.2
		c-0.1-1-1.6-1.9-2.4-2.8c-0.9,1-2.6,1.9-2.6,3c-0.2,6.9-0.2,13.8,0,20.6c0,1,1.6,2.8,2.6,2.9c3.7,0.3,7.5,0.3,11.2,0
		c0.9-0.1,2.3-1.5,2.3-2.2C36.5,176.2,35.4,174.8,34.5,174.5z"/>
	<path d="M52.4,174.4c-2-0.4-4.2-0.3-6.3,0.1c-0.9,0.2-2.3,1.7-2.1,2.3c0.2,1,1.3,2.1,2.3,2.7c0.8,0.4,1.9,0.1,2.9,0.1c0,0,0,0,0,0
		c1,0,2.2,0.3,2.9-0.1c1.2-0.6,2.2-1.8,3.3-2.7C54.4,176,53.5,174.6,52.4,174.4z"/>
</g>
</svg>
