<?xml version="1.0" encoding="utf-8"?>
<!-- Generator: Adobe Illustrator 27.1.1, SVG Export Plug-In . SVG Version: 6.00 Build 0)  -->
<svg version="1.1" id="Layer_1" xmlns="http://www.w3.org/2000/svg" xmlns:xlink="http://www.w3.org/1999/xlink" x="0px" y="0px"
	 viewBox="0 0 200 200" style="enable-background:new 0 0 200 200;" xml:space="preserve">
<style type="text/css">
	.st0{fill:#FFFFFF;}
</style>
<g>
	<path class="st0" d="M100.3,46.8c17.4,1.4,33,7.2,46.4,19c7.4,6.6,15.1,12.9,22.9,19c6.8,5.2,14.6,8.4,23.1,9.9
		c4.8,0.8,7.3,3.7,7.3,7.8c0,3.9-2.3,6.9-6.9,7.6c-11.2,1.9-20.7,7.3-29.4,14.3c-5.6,4.5-11.1,9.4-16.4,14.2
		c-13.2,11.9-28.7,18.9-46.3,19.1c-18.4,0.3-34.5-6.9-48.3-19.1c-7.3-6.5-14.8-12.8-22.6-18.7c-6.6-5-14.1-8.2-22.4-9.6
		c-5.1-0.9-7.7-3.7-7.7-7.8c0-4.2,2.5-7,7.6-7.8c13.9-2.3,24.5-10.5,34.9-19.1c6.4-5.3,12.3-11.3,19.1-16.1
		C73.1,51.5,86.2,47.7,100.3,46.8z M98,73C87.3,73,74.8,77.3,64.7,84.8c-6,4.5-12.3,8.7-18.5,12.9c-4.2,2.9-4.2,6.7,0,9.6
		c5.9,4,11.8,7.9,17.5,12.2c22.5,16.9,50.9,16.7,73.2-0.5c5.3-4.1,10.9-7.8,16.5-11.5c4.7-3.1,4.6-6.8-0.1-10
		c-6.1-4.1-12.2-8.3-18.1-12.7C124.7,77.1,113,73.2,98,73z"/>
	<path class="st0" d="M182.9,31.8c-1.4,2.6-2.4,5.7-4.4,7.8c-5,5.7-11.6,9.1-18.9,10.9c-4.2,1-5.8-0.4-5.4-4.8
		c0.7-7.7,3.1-14.7,7.9-20.8c3.3-4.2,8.3-5.6,12.9-3.8C179.4,22.8,182.2,26.9,182.9,31.8z"/>
	<path class="st0" d="M182.3,168.3c-0.4,5-2.4,8.4-6.6,10.4c-4.2,1.9-8.4,1.3-11.6-1.8c-6.8-6.6-9.5-15.1-9.8-24.4
		c0-1.1,1.9-3.1,3.1-3.2c6.7-0.6,21.1,8.5,23.7,14.8C181.8,165.6,182,167.2,182.3,168.3z"/>
	<path class="st0" d="M17.8,31.8c0.2-4.9,2.2-8.3,6.1-10.3c4-2,8.1-1.8,11.4,1c7.6,6.6,10.2,15.5,10.5,25.2c0,1-1.9,2.8-3,2.9
		c-6.8,0.7-21.4-8.6-23.9-15.1C18.2,34.2,18,32.8,17.8,31.8z"/>
	<path class="st0" d="M30.4,179.8c-5.9-0.4-9.2-2.2-11.2-5.9c-2.2-4.1-1.9-8.2,0.8-11.7c5.5-7.1,13-11.1,21.7-12.8
		c3-0.6,4.3,1.1,4.1,3.9c-0.5,8.2-2.9,15.9-8.4,22.1C35.3,177.6,32,178.8,30.4,179.8z"/>
	<path class="st0" d="M111.1,11.6c-0.6,8.4-3.1,15.4-7.8,21.6c-2.5,3.3-4.2,3.3-6.6,0.2c-4.8-6.3-7.4-13.4-7.8-21.2
		C88.6,5.3,93.6-0.1,100.1,0C106.6,0.1,111.3,5.4,111.1,11.6z"/>
	<path class="st0" d="M88.9,187.8c0.5-7.8,3.1-14.9,7.8-21.2c2.3-3,4.1-3,6.4-0.1c4.8,6.2,7.4,13.3,7.9,21.1
		c0.4,6.9-4.5,12.2-11,12.3C93.6,200,88.7,194.7,88.9,187.8z"/>
	<path class="st0" d="M82.3,102.4c0.1-9.9,8.2-17.8,18.1-17.6c9.7,0.2,17.4,8.2,17.3,18c-0.1,9.7-8.2,17.6-17.9,17.4
		C90.1,120.1,82.2,112.1,82.3,102.4z"/>
</g>
</svg>
