<?xml version="1.0" encoding="utf-8"?>
<!-- Generator: Adobe Illustrator 27.1.1, SVG Export Plug-In . SVG Version: 6.00 Build 0)  -->
<svg version="1.1" id="Layer_1" xmlns="http://www.w3.org/2000/svg" xmlns:xlink="http://www.w3.org/1999/xlink" x="0px" y="0px"
	 viewBox="0 0 200 200" style="enable-background:new 0 0 200 200;" xml:space="preserve">
<style type="text/css">
	.st0{fill:#FFFFFF;}
</style>
<g>
	<path class="st0" d="M99.7,0c8.8,1.5,17.7,2.8,26.4,4.6c5.1,1.1,7,3.6,6.1,6.8c-0.9,3.2-3.7,4.1-8.8,2.7
		c-50-13.6-100.2,16.6-111.5,67c-8,35.9,7.3,73.4,38.3,93.8c31.1,20.4,71.5,19.4,101.7-2.5c29.7-21.5,43.2-59.8,33.8-95.2
		c-0.1-0.4-0.3-0.9-0.4-1.3c-1.4-5-0.5-8,2.9-8.7c4.8-0.9,5.8,2.7,6.8,6.2c13.2,46.3-9.6,96.7-53.8,116.6
		c-34.5,15.6-68.3,12.8-99.2-9C11.3,159.3-2.6,128.5,0.4,91C4.5,40.1,48.5,0.6,99.7,0z"/>
	<path class="st0" d="M99.6,40.6c-31-0.3-57.5,24.6-59.2,55.5c-1.8,32.3,21.7,59.7,54.1,62.9c30.5,3,59.2-19.4,63.7-49.8
		c0.6-4,0.7-8.2,0.7-12.3c0-3.4,0.6-6.2,4.6-6.5c4.1-0.2,5.2,2.7,5.3,6c0.8,14.6-2.8,28.1-10.6,40.4c-17.2,27.2-50.4,38.9-81,28.6
		c-29.2-9.9-49.2-39.6-46.7-69.5c2.7-33.3,25.8-59.1,57.9-64.4c4.8-0.8,9.7-0.7,14.6-0.7c3.5,0,6.1,1.6,5.9,5.4
		c-0.1,4.2-3.2,4.7-6.5,4.4C101.4,40.5,100.5,40.6,99.6,40.6z"/>
	<path class="st0" d="M168.9,30.5c4.8,0,9-0.3,13.2,0.1c2.1,0.2,5.1,1.5,5.8,3.1c0.7,1.6-0.5,4.8-1.9,6.3
		c-8.9,9.3-18.1,18.5-27.4,27.5c-1.6,1.6-4.7,2.9-6.8,2.6c-11.4-1.8-19.6,2.6-26.8,11.2c-6.2,7.5-13.7,13.9-20.5,20.8
		c-2.5,2.5-5.3,4.2-8.3,1.3c-2.9-2.9-1.3-5.8,1.2-8.3c9.7-9.7,19.5-19.3,29-29.1c1.6-1.6,3-4.6,2.7-6.7
		c-1.7-11.7,2.6-20.3,11.7-27.6c6.6-5.3,12-12.1,18.3-17.9c1.6-1.5,4.9-2.9,6.6-2.2c1.7,0.7,2.9,3.9,3.2,6.2
		C169.3,21.8,168.9,25.9,168.9,30.5z M158.6,28.4c-1.5,1.4-2.5,2.2-3.4,3.1c-4.9,4.9-10.7,9.4-14.5,15c-2.1,3.1-0.9,8.4-1.1,12.7
		c0,0.2,0.6,0.8,1,0.8c3.9-0.1,9,1.3,11.5-0.6c6.8-5.3,12.4-12.1,18.7-18.5C159.6,39.6,159.6,39.6,158.6,28.4z"/>
	<path class="st0" d="M60,99.9c0-20.6,15.8-37.7,36.2-39.4c5.2-0.4,8,1,8.1,4.3c0.2,4.9-3.4,5.3-7.1,5.7
		c-12.5,1.3-21.4,7.8-25.5,19.7c-4,11.5-1.6,22.1,7,30.7c8.8,8.7,19.6,11.1,31.2,6.7c11.6-4.3,17.9-13.1,19.3-25.4
		c0.2-1.9,0.5-4.2,1.7-5.4c1.1-1.1,4-1.7,5.2-1.1c1.5,0.8,2.9,3.2,3,5c0.1,7.5-2.1,14.4-6.2,20.7c-9.6,14.8-27.7,21.5-44.7,16.5
		C71.6,132.9,60,117.3,60,99.9z"/>
</g>
</svg>
