<?xml version="1.0" encoding="utf-8"?>
<!-- Generator: Adobe Illustrator 27.1.1, SVG Export Plug-In . SVG Version: 6.00 Build 0)  -->
<svg version="1.1" id="Layer_1" xmlns="http://www.w3.org/2000/svg" xmlns:xlink="http://www.w3.org/1999/xlink" x="0px" y="0px"
	 viewBox="0 0 136.6 200" style="enable-background:new 0 0 136.6 200;" xml:space="preserve">
<g>
	<path d="M82.4,172.3c0,5.7,0.1,10.9,0,16.2c-0.1,7.2-3.7,10.7-10.7,10.9c-1.7,0-3.4,0-5.1,0c-7.5-0.1-11.1-3.6-11.2-11
		c-0.1-5.1,0-10.1,0-16.1c-2,0-3.8,0-5.6,0c-11.8,0-23.7,0.1-35.5,0c-8.3-0.1-13-4.7-13-12.9c-0.1-48.5-0.1-96.9,0-145.4
		c0-8.3,4.7-13,13-13c36.4-0.1,72.9-0.1,109.3,0c8.2,0,12.9,4.7,12.9,13c0.1,48.5,0.1,96.9,0,145.4c0,8.2-4.8,12.8-13.1,12.9
		C109.9,172.3,96.4,172.3,82.4,172.3z M82.9,163.3c12.9,0,25.8-0.2,38.7,0.1c4.9,0.1,6-1.8,6-6.3c-0.1-47-0.1-93.9,0-140.9
		c0-5.1-1.8-6.3-6.6-6.3C86.5,10,51.9,10,17.4,9.8c-5.8,0-7.2,1.9-7.2,7.4c0.2,46.2,0.1,92.4,0.1,138.6c0,1.3-0.4,2.9,0.1,3.9
		c0.8,1.4,2.3,3.3,3.5,3.4c13.7,0.2,27.4,0.2,41.4,0.2c-0.5-7.2,2-12.1,8.8-13.8c0-7.5,0-14.8,0-22C32.8,122,21.9,96.5,24,77.7
		c2.5-22.5,20.8-39.6,43.4-40.5c22.2-0.9,41.6,15,45.8,37.7c2,10.8-0.1,20.9-5.6,30.3c-7.6,13-19.4,19.9-34.1,22.2
		c0,7.5,0,14.6,0,21.7C81.3,152.9,81.7,153.6,82.9,163.3z M105,81.9C104.9,62,88.5,45.9,68.6,46c-19.7,0.1-35.7,16.3-35.7,36
		c0,19.9,16.2,36.2,36.1,36.2C88.8,118.1,105,101.8,105,81.9z M64.8,159c0,10.7,0,20.9,0,31c2.9,0,5.5,0,8.3,0c0-10.4,0-20.6,0-31
		C70.2,159,67.7,159,64.8,159z"/>
	<path d="M69.1,18.9c6.9,0,13.9-0.3,20.8,0.2c2.1,0.2,4,2.8,6,4.3c-2,1.5-3.9,4.3-5.9,4.4c-14,0.4-28.1,0.4-42.1,0
		c-2-0.1-4-2.8-6-4.3c2-1.5,3.8-4.2,5.9-4.3C54.9,18.6,62,18.9,69.1,18.9z"/>
	<path d="M68.8,55c14.9,0.6,27.1,12.7,26.9,25.4c0,2-2.7,4.1-4.1,6.1c-1.5-1.7-4.1-3.3-4.5-5.3c-2-10.3-7-15.7-17.2-17.1
		c-3.2-0.4-6-1.6-5.2-5C65.2,57.1,68.1,55.7,68.8,55z"/>
</g>
</svg>
