<?xml version="1.0" encoding="utf-8"?>
<!-- Generator: Adobe Illustrator 27.1.1, SVG Export Plug-In . SVG Version: 6.00 Build 0)  -->
<svg version="1.1" id="Layer_1" xmlns="http://www.w3.org/2000/svg" xmlns:xlink="http://www.w3.org/1999/xlink" x="0px" y="0px"
	 viewBox="0 0 200 200" style="enable-background:new 0 0 200 200;" xml:space="preserve">
<g>
	<path d="M5,54.3c1.5-0.3,3.7-1.4,4.4-0.8c1.1,1,1.7,3.1,1.7,4.7c0.1,37.9,0.1,75.7,0.1,113.6c0,1.1,0,2.2,0,3.3
		c0.1,8,3.3,11.3,11.2,11.4c10.3,0,20.6,0,30.9,0c12.4,0,24.8,0,37.1,0c1.4,0,2.8,0,4.1,0c1.2-7.2,1.2-7.1-5-9.2
		c-11.7-4-23.7-3.7-35.7-2.4c-10.3,1.1-20.6,3.1-30.9,4.9c-4.6,0.8-5.8,0.1-5.8-4.5c0-20.9,0-41.7,0-62.6c0-23.2,0.1-46.4-0.1-69.5
		c0-3.7,1.1-5.5,4.8-6.3c18.6-4,37.2-7,56.3-4.9c6.4,0.7,12.6,3.2,18.9,4.9c3.1,0.8,4,2.8,3.9,6c-0.1,37.3-0.1,74.5-0.1,111.8
		c0,1.4,0,2.8,0,4.7c1.5-0.7,2.6-1.3,3.7-1.8c15.4-7.2,30.9-14.5,46.4-21.7c1.8-0.8,3-1.4,3-3.8c-0.1-38.7-0.1-77.4-0.1-116.1
		c0-0.4-0.1-0.7-0.2-1.7c-3.3,1.4-6.6,2.5-9.6,4.1c-11.2,5.8-22.3,11.7-33.4,17.6c-0.4,0.2-0.8,0.5-1.3,0.7c-1.8,1-3.9,1.2-4.6-0.8
		c-0.4-1.2,0.5-3.8,1.5-4.4c8.4-4.9,16.8-9.7,25.4-14.1c7.7-3.9,15.8-7.3,23.7-11c1,0,1.9,0,2.9,0c0.5,1.7,1.6,3.3,1.6,5
		c0.1,41.3,0,82.5,0.1,123.8c0,2.6-0.7,4.3-3.4,5.2c-19.2,6.6-37.2,15.9-54.8,25.8c-5.5,3.1-7,2.2-7-4.2c0-38.5,0-76.9,0.1-115.4
		c0-3.1-0.9-4.4-3.8-5.4c-11.3-4.1-22.9-4.2-34.5-3.1c-11,1-22,2.8-33.1,4.3c0,44.1,0,87.2,0,130.7c6.3-1.1,12.4-2.4,18.6-3.1
		c15.9-1.9,32-4,47.6,1.2c5.9,2,11.1,2,17,0.2c16.1-5,32.6-3.6,49.1-1.4c5.4,0.7,10.7,1.9,16.3,2.9c0-43.2,0-86.3,0-129.6
		c-1.3-0.3-2.8-0.3-3.7-1.1c-1-0.8-2.1-2.4-2-3.5c0-0.8,2-2.2,3-2.2c2.4,0.1,5,0.4,7,1.5c1.2,0.7,2.2,3.1,2.2,4.7
		c0.1,20.7,0.1,41.5,0.1,62.2c0,23.3,0,46.6,0,69.9c0,5.4-1.1,6.2-6.3,4.9c-18.2-4.5-36.7-7-55.5-4.3c-3.6,0.5-7.1,1.5-10.6,2.4
		c-6,1.6-6.1,1.9-4.9,8.6c1.2,0.1,2.5,0.2,3.8,0.2c22.6,0,45.1,0,67.7,0c8.9,0,12-3.1,12-12.1c0-37.6,0-75.2,0-112.8
		c0-1.2-0.2-2.5,0.1-3.6c0.3-1.6,0.6-3.7,1.7-4.3c1-0.6,2.9,0.5,4.5,0.8c0,42,0,84,0,126c-2,6.2-6.1,10.4-12.4,12.4
		c-53.9,0-107.8,0-161.7,0c-6.2-2-10.4-6.1-12.4-12.4C5,138.3,5,96.3,5,54.3z"/>
	<path d="M63,98.9c6.2,0.8,11.4,1.2,16.4,2.2c1.2,0.2,2.1,2.3,3.1,3.6c-1.4,0.8-3,2.5-4.2,2.3c-12.4-2.3-24.6-1.3-36.8,1.3
		c-2.3,0.5-4.6,1-5.3-2c-0.7-2.9,1.5-3.7,3.9-4.1C48.1,101.1,56,100,63,98.9z"/>
	<path d="M63,136.2c6.1,0.7,11.1,1.3,16.1,2c2.1,0.3,3.9,1.3,3.4,3.8c-0.5,2.4-2.4,2.8-4.5,2.3c-12.2-2.5-24.3-1.3-36.4,1.2
		c-2.3,0.5-4.6,0.9-5.3-2c-0.7-3,1.7-3.7,3.9-4C48.1,138.3,56,137.2,63,136.2z"/>
	<path d="M79.1,69C71.4,69,63.7,68.6,56,68.9c-4.9,0.2-9.8,1.4-14.7,2.2c-2.1,0.3-4.3,0.8-5-2c-0.6-2.7,1.3-3.5,3.5-4
		c13.1-2.9,26.3-4.1,39.6-1.2c1.3,0.3,2.6,2.2,3,3.6c0.2,0.7-1.8,2-2.7,3C79.4,70,79.3,69.5,79.1,69z"/>
	<path d="M62.3,80.3c6.2,0.7,11.4,1.2,16.6,1.9c2.2,0.3,4.2,1.2,3.6,4c-0.5,2.5-2.6,2.6-4.6,2.2c-12.1-2.5-24.1-1.2-36,1.1
		c-1.4,0.3-3.1,0.2-4.5-0.3c-0.6-0.2-1.3-2.1-1-2.7c0.6-1.1,1.8-2.4,3-2.6C47.3,82.5,55.3,81.4,62.3,80.3z"/>
	<path d="M62.6,117.6c6.1,0.7,11.3,1.3,16.4,2c2.1,0.3,3.9,1.2,3.5,3.6c-0.4,2.5-2.3,2.8-4.4,2.4c-12.3-2.5-24.5-1.3-36.7,1.3
		c-2,0.4-4.4,0.8-5.1-1.9c-0.7-3,1.5-3.8,3.8-4.1C47.9,119.7,55.6,118.6,62.6,117.6z"/>
	<path d="M142,40.2c0.8,0.7,2.4,1.6,2.4,2.6c0,1.2-0.9,3-2,3.6c-3,1.6-6.3,2.5-9.3,3.9c-5.6,2.5-11.2,5.2-16.7,7.8
		c-2,1-4,1.6-5.3-0.8c-1.3-2.5,0.4-3.8,2.5-4.7c8.1-3.7,16.3-7.4,24.4-11C139,41.1,140.2,40.8,142,40.2z"/>
	<path d="M144.8,81.6c-0.6,0.5-1.4,1.7-2.6,2.3c-8.8,4-17.6,7.9-26.4,11.8c-1.9,0.9-3.6,0.8-4.7-1.1c-1.1-2.1,0-3.6,1.8-4.4
		c9-4.1,18-8.1,27.1-12C142.6,77.1,144.8,78.5,144.8,81.6z"/>
	<path d="M144.8,119c-0.6,0.5-1.5,1.7-2.6,2.2c-8.7,4-17.4,7.8-26.1,11.7c-2,0.9-3.8,1.2-5-1c-1.1-2.1,0.1-3.5,1.9-4.4
		c8.9-4,17.8-8.1,26.8-11.9C142.5,114.3,144.8,115.7,144.8,119z"/>
	<path d="M144.8,63c-0.6,0.5-1.4,1.7-2.6,2.2c-8.7,4-17.4,7.8-26.1,11.7c-2,0.9-3.8,1.3-5-0.9c-1.3-2.3,0.1-3.7,2.1-4.6
		c8.7-3.9,17.3-7.9,26.1-11.6C142.4,58.4,144.7,59.6,144.8,63z"/>
	<path d="M144.8,100.2c-0.6,0.5-1.4,1.7-2.6,2.3c-8.7,4-17.5,7.8-26.2,11.7c-2,0.9-3.8,1.2-5-1c-1.1-2.1,0.1-3.5,2-4.3
		c8.8-4,17.6-8,26.5-11.8C142.4,95.7,144.7,96.9,144.8,100.2z"/>
</g>
</svg>
