<?xml version="1.0" encoding="utf-8"?>
<!-- Generator: Adobe Illustrator 27.1.1, SVG Export Plug-In . SVG Version: 6.00 Build 0)  -->
<svg version="1.1" id="Layer_1" xmlns="http://www.w3.org/2000/svg" xmlns:xlink="http://www.w3.org/1999/xlink" x="0px" y="0px"
	 viewBox="0 0 200 139.3" style="enable-background:new 0 0 200 139.3;" xml:space="preserve">
<g>
	<path d="M71.4,59c7.8,8.2,17.2,12.7,28.5,12.7c11.3,0,20.8-4.4,28.7-12.8c2.4,2.1,4.9,4,7.1,6.3c12.9,13.4,18.6,29.6,17.8,48.1
		c-0.2,4.3-1.1,8.4-3.3,12.1c-2.9,4.9-7.4,7.5-12.7,9c-5.6,1.6-11.5,2.1-17.3,2.1c-13.6,0-27.1-0.1-40.7-0.4
		C73.3,136,67,135.1,61,133c-8.5-3-13.5-9-14.4-18c-1.3-13.6,1.7-26.3,8.5-38.1c3.9-6.8,9-12.6,15.3-17.3
		C70.8,59.4,71.1,59.2,71.4,59z"/>
	<path d="M130.4,33.3c-0.1,17-13.8,30.6-30.7,30.4c-16.8-0.1-30.2-13.9-30.1-30.9c0.1-16.5,14-30,30.6-29.9
		C117,3,130.5,16.7,130.4,33.3z"/>
	<path d="M160.4,116.7c1.5-19.9-3.7-37.5-16.3-53c13.4,5.8,25.2,3.5,35.7-6.7c1.8,1.6,3.7,3.1,5.4,4.8c8.1,8.3,12.5,18.4,13.5,29.9
		c0.3,3.2,0.2,6.6-0.2,9.8c-1,7.5-5.3,12-12.6,13.8c-4.5,1.1-9,1.4-13.5,1.4C168.4,116.8,164.5,116.7,160.4,116.7z"/>
	<path d="M20.4,57.1c10.4,10.1,22.1,12.4,35.7,6.5c-6.4,7.6-10.8,15.8-13.6,25c-2.7,9.1-3.8,18.4-2.7,28c-2.6,0-5.1,0-7.6,0
		c-6-0.1-12-0.3-17.9-2c-4.5-1.3-8.5-3.5-10.9-7.7c-1.5-2.6-2.2-5.5-2.3-8.5C0.8,82,6.4,68.2,19.4,57.8C19.7,57.5,20,57.3,20.4,57.1
		z"/>
	<path d="M157.6,13.9c12.6-0.1,23.3,10.4,23.4,23c0.1,13.1-10.2,23.6-23.3,23.8c-12.6,0.2-23.5-10.4-23.5-22.8
		C134.1,24.4,144.2,14,157.6,13.9z"/>
	<path d="M42.5,13.9C55.9,14,66,24.5,65.8,38c-0.2,12.4-11,22.9-23.5,22.7C29.2,60.5,18.9,50,19,36.9C19.2,24.2,29.8,13.7,42.5,13.9
		z"/>
</g>
</svg>
