<?xml version="1.0" encoding="utf-8"?>
<!-- Generator: Adobe Illustrator 27.1.1, SVG Export Plug-In . SVG Version: 6.00 Build 0)  -->
<svg version="1.1" id="Layer_1" xmlns="http://www.w3.org/2000/svg" xmlns:xlink="http://www.w3.org/1999/xlink" x="0px" y="0px"
	 viewBox="0 0 245.4 230.3" style="enable-background:new 0 0 245.4 230.3;" xml:space="preserve">
<style type="text/css">
	.st0{fill:url(#SVGID_1_);}
	.st1{fill:#D3B42F;}
	.st2{fill:#191919;}
	.st3{fill:#131313;}
</style>
<linearGradient id="SVGID_1_" gradientUnits="userSpaceOnUse" x1="-1.1109" y1="104.8325" x2="285.9019" y2="146.2437">
	<stop  offset="0" style="stop-color:#000000"/>
	<stop  offset="0.1018" style="stop-color:#060606"/>
	<stop  offset="0.233" style="stop-color:#161616"/>
	<stop  offset="0.3796" style="stop-color:#303030"/>
	<stop  offset="0.4946" style="stop-color:#4A4A4A"/>
	<stop  offset="0.5988" style="stop-color:#333333"/>
	<stop  offset="0.7579" style="stop-color:#171717"/>
	<stop  offset="0.897" style="stop-color:#060606"/>
	<stop  offset="1" style="stop-color:#000000"/>
</linearGradient>
<rect class="st0" width="245.4" height="245.4"/>
<g>
	<path class="st1" d="M122.3,56.5c0.3-0.5,0.6-1,1.2-1.9c1.5,3.7,2.8,7,4.3,10.8c3.8-4.1,4.4-9.3,6.3-14c0,6.2-1.8,11.5-4.1,16.9
		c-2.6,6.2-4.6,12.6-4.6,19.5c0,1.4,0.4,2.8,0.6,4.8c4.2-3.6,7.9-6.7,11.5-9.9c0.4-0.4,0.5-1.4,0.5-2c-0.1-1.9-0.5-3.7-0.3-5.6
		c0.2-2.3,0.8-4.7,1.3-7c0.6-3,1.2-6-0.9-8.8c-0.5-0.7-0.9-1.4-1.3-1.9c1.4,0.3,3,1.2,4.2,0.9s2.1-1.8,3.2-2.8
		c0.3,2.7-3.5,4.9-1.3,8.3c2.7-1.8,5.3-3.6,8-5.4c-0.9-1.5-1.6-2.8-2.6-4.6c3.5,0.9,5.2,3.1,6.8,5.3c2.1,2.9,4.2,5.8,6.5,8.6
		c2,2.5,2,7.4-0.3,10.5c-1,1.3-2.2,2.5-3.6,4.1c2.6,1.7,5.1,3.3,7.5,4.8c0,0.2,0,0.5-0.1,0.7c-1.3,0-2.6,0.2-3.8-0.1
		c-1.5-0.4-3-1.1-4.4-1.7c-3.5-1.5-5.1-1.2-7.1,1.9c-1.8,2.8-3.1,5.9-4.6,8.8c0.2,0.2,0.4,0.3,0.6,0.5c1.2-1.1,2.4-2.5,3.8-3.4
		c1.5-0.9,3.3-2.1,4.9-2c6.6,0.4,12.5-1.4,18.2-4.4c4.9-2.6,10.2-4.1,16.3-3.6c-5.3,2.4-11.1,2.7-15.3,6.5c0,0.3,0.1,0.7,0.1,1
		c2.1,0.4,4.2,0.7,6.2,1.1c-2.3,2.1-5.2,2.3-13.2,0.8c-0.7,3.1-1.5,6.2-1.9,9.4c-0.1,0.7,1.3,1.6,1.9,2.4c-4.8,2.9-2.8,8.4-4.5,13.5
		c2.4-0.4,4.1-0.5,5.8-0.9c8.1-2,14.5-6.6,19.7-13c4.4-5.5,9.7-9.6,16.8-10.6c0.4-0.1,0.9-0.1,1.6-0.1c-0.3,0.4-0.3,0.7-0.5,0.7
		c-6.6,2.6-11.4,7.3-15.4,12.9c-3.9,5.4-8.8,9.5-14.8,12.5c7.8,1.6,11.9-4.8,17.5-8.1c0.1,0.1,0.3,0.3,0.3,0.4c-1.8,5-1.8,5,3.1,7.7
		c2.2,1.2,4.3,2.5,6.4,3.8c-0.2,0.4-0.3,0.7-0.5,1.1c-3.6-1.4-7.2-2.7-10.8-4.2c-2-0.8-3.4-1-5.2,0.8c-3.6,3.7-8,4.3-12.9,2.8
		c-2.6-0.8-5.5-1.2-8.2-0.8c-2,0.3-3.8,2-5.6,3.6c4.6-0.3,9.1-2.2,13.6,1.6c-1.6-0.2-2.7-0.3-3.9-0.5c2.5,4.4,5.8,5.6,10,4.4
		c2.8-0.7,5.9-1.1,8.8-0.9c5.5,0.4,5.4,0.7,10.2-1c-2.4,3.1-4,3.7-7.7,2.8c-4.1-1-7.9-0.5-11.5,1.7c-1.5,0.9-2.1,2-1.8,3.9
		c1,7.4-1.8,12.6-8.2,15.9c-0.5,0.3-1.1,0.4-1.8,0.7c1.8-3.4,3.9-6.4,5.2-9.7c3.3-8.3,2-13.1-9-14.8c-5-0.8-10.2-0.4-15.3-0.3
		c-1.2,0-2.7,0.9-3.6,1.8c-3.1,3-6,6.1-8.8,9.4c-3.9,4.6-5,9.8-4.3,15.9c1.2,11.3,5.7,20.7,13.4,28.8c6.3,6.5,13.6,10.6,22.8,10.9
		c2.2,0.1,4.3,0.9,6.4,1.5c-3.9,0.4-7.9-1.6-11.6,0.6c-0.1,0.4-0.1,0.8-0.2,1.2c2.7,0.7,5.3,1.5,7.9,2.2c-5.1,0.8-9.7-1-14.2-3.2
		c-4.7-2.3-9.5-4.2-14.4-6c-7.3-2.7-11.7-7.4-11.7-15.5c0-0.7-0.2-1.4-0.3-2.4c-2.8,7.8-2.1,14.4,2.4,19c2.3,2.4,4.9,3.7,8.3,2.5
		c2.5-0.9,4.7-0.2,6.7,1.5c1.8,1.6,3.8,3,5.5,4.8c-2.6-1.3-5.2-2.6-7.8-4c-2.5-1.3-4.6-0.6-5.3,1.6c-3.2-1.2-6.4-2.4-9.6-3.6
		c-1.5-0.6-2.8-0.2-3.1,1.2c-0.2,1,0.3,2.6,1,3.2c1.7,1.5,3.8,2.5,5.7,3.7c-0.1,0.3-0.2,0.5-0.3,0.8c-3.1-1.2-6.3-2.3-9.3-3.7
		c-1.6-0.7-2-2.3-0.9-3.8c2.6-3.4,2.4-6.9,1.2-10.8c-1.8-5.8-1.2-11.7,0.1-17.7c1-4.4,1.1-9,1.5-13.5c0.1-0.6-0.4-1.3-0.6-2.1
		c-0.4,0.2-0.6,0.3-0.6,0.4c0.4,5.5-1.5,10.6-2.9,15.8c-1,3.7-1.2,7.7-1.8,11.5c-0.5,3.6-1.1,7.1-1.3,10.7c-0.1,1.6,0.2,3.5,1,5
		c1.3,2.3,0.7,3.8-1.4,4.7c-3.1,1.3-6.3,2.4-9.5,3.6c-0.1-0.2-0.2-0.5-0.4-0.7c1.7-1,3.4-2,5.1-3.1c0.9-0.6,2-1.2,2.5-2.1
		c0.4-0.7,0.2-2.1-0.3-2.8c-0.3-0.5-1.7-0.9-2.4-0.7c-3.7,1.1-7.4,2.3-11.1,3.5c-0.6-1.9-2.7-2.7-5-1.5c-2,1-3.9,2.2-5.9,3.2
		c-0.9,0.4-1.9,0.5-2.7,0.7c2-1.5,4-2.9,5.9-4.5c2.5-2,5-2.5,8.1-1.4c3.3,1.2,6.7-0.1,9.3-3.4c2-2.6,3.4-5.4,1.9-9.1
		c-2.9,6.5-9.1,7.4-14.7,9.4c-4.8,1.7-9.6,3.5-14.3,5.7c-4,1.9-7.9,4-12.5,2.9c2.3-0.6,4.7-1.2,7.1-1.8c0-0.4-0.1-0.8-0.1-1.2
		c-3.4-2.4-7.4-0.4-11.2-1.1c2.6-0.4,5.2-1.2,7.7-1.2c11.2-0.2,19.8-4.6,27-13.4c7.2-8.6,10.2-18.4,11.5-29.1
		c0.5-3.7-0.7-7.4-3-10.2c-3.6-4.5-7.6-8.6-11.6-12.8c-0.6-0.7-1.8-1.1-2.8-1.1c-5.4,0-10.8,0.1-16.2,0.4c-1.6,0.1-3.3,0.7-4.8,1.4
		c-4,1.9-5.6,4.6-4.3,8.8c1.5,4.9,3.8,9.5,5.6,13.9c-4.4-0.8-10.3-7-9.6-14.6c0.4-4.3,0.1-4.8-3.8-6.6c-3-1.4-6.2-1.5-9.3-0.6
		c-3,0.9-5.3,0.2-7.2-2.5c3.5,2.5,7.1,0.5,10.6,0.5c2.7,0,5.6,0.3,8.2,1.3c2.5,0.9,4.2,0.8,6-1c1.1-1.1,2.3-2,4-3.4
		c-1.7,0-2.6,0-3.7,0c4.1-3.9,8.6-1.5,13.1-0.8c-1.5-3.1-4.9-4.9-8.7-4.5c-2.1,0.2-4.3,0.6-6.3,1.3c-4.6,1.5-8.5,0.5-11.8-2.9
		c-1.6-1.7-3.1-1.8-5.2-0.9c-3.5,1.6-7.2,2.9-10.8,4.3c-0.1-0.2-0.3-0.4-0.4-0.6c0.6-0.6,1.2-1.2,1.9-1.7c2.1-1.2,4.2-2.5,6.4-3.5
		c2.5-1.1,3.2-2.5,1.8-4.9c-0.3-0.5-0.4-1-0.9-2.2c6.1,3.6,10.3,9.9,18.3,8.6c-0.5-0.6-0.6-0.9-0.8-1c-7.1-2.8-12-8.1-16.3-14
		c-3.6-4.9-8.1-8.6-13.6-11.2c4-0.1,7.6,1.1,10.6,3.5c3,2.3,5.7,5,8.2,7.9c5.9,6.7,12.9,11.2,21.8,12.6c0.7,0.1,1.4,0.1,2.8,0.2
		c-0.6-3.9-1-7.6-1.9-11.1c-0.2-1-1.9-1.6-3.1-2.5c2.9,0,2.9-1.8,2.5-3.9c-0.6-2.6-1.2-5.2-1.7-7.7c-7.9,1.6-9.2,1.5-13.2-0.6
		c2.2-0.4,4.2-0.7,6.2-1c0.1-0.3,0.2-0.6,0.2-0.9c-4-4-9.6-4.6-14.7-6.4c2.6-0.9,7-0.4,11.9,1.4c2.1,0.8,4.1,1.8,6.1,2.8
		c4.6,2.4,9.4,3.7,14.5,3.2c3-0.3,5.2,0.6,7,3c0.9,1.2,2.2,2.1,3.7,2.8c-1.7-3.3-3.2-6.6-5-9.8c-1.7-2.9-3.4-3.2-6.7-1.9
		c-1.7,0.7-3.4,1.5-5.2,1.9c-1,0.2-2.1-0.1-3.2-0.7c2.4-1.6,4.9-3.2,7.6-4.9c-1.2-1.3-2.2-2.3-3.1-3.3c-3.7-4.1-3.4-8.9,0.5-12.8
		c1.9-1.9,3.1-4.3,4.6-6.6c1.7-2.7,3.5-5.2,7.4-6.2c-1.1,1.8-2,3.1-3,4.6c2.6,1.8,5.1,3.5,7.9,5.4c2.4-3.5-1.5-5.8-1.2-8.7
		c1,1.1,1.8,2.8,3,3.3s2.8-0.3,3.5-0.4c-0.5,1.9-1.4,4.5-1.7,7.1c-0.2,1.3,0.8,2.8,0.9,4.2c0.3,3.3,0.7,6.7,0.4,9.9
		c-0.2,2.4,0.2,4,2.2,5.5c3.2,2.4,6.3,5.1,9.4,7.7c0.3-0.1,0.7-0.1,1-0.2c0-2.8,0.5-5.7,0-8.3c-1-4.9-2.6-9.7-4.2-14.5
		c-0.9-2.8-2.3-5.5-3-8.4c-0.7-2.8-0.9-5.7-1.1-8.6c1.7,4.2,3.3,8.5,5,12.7c0.3,0,0.6,0,1-0.1C119.2,62.1,120.8,59.3,122.3,56.5
		c-0.6,2.7-0.8,5.5-1.9,8c-2.1,4.8,2,7.7,2.7,11.6c1.1-3.2,2-6.4,2-9.5c0-2.9-0.9-5.8-1.5-8.7C123.4,57.4,122.7,57,122.3,56.5z
		 M130.6,131.3c8.4-6.5,11.2-17.8,20.8-22.9c0.8,3.6-0.6,6.1-3,8.4c-1.7,1.6-3.7,2.9-4,6c5.1-1.5,10-2.9,12.9-7.3
		c3.2-4.7,3.6-10.3,4.8-15.6c-0.9,0.1-1.4,0.3-1.8,0.6c-3.6,2.8-7.7,4.4-12.3,4.6c-3.4,0.2-6.3,1.8-8.4,4.5
		c-2.7,3.5-5.1,7.4-7.9,10.8C129.1,123.7,129,127,130.6,131.3z M83.2,100.1c0.8,3,1.8,5.8,2.3,8.8c1.2,8.4,7.4,11.4,14.4,13.7
		c0.4,0.1,0.9-0.2,2-0.5c-2-2.2-3.5-4-5.2-5.6c-2.3-2.2-3.1-4.7-2.3-8.2c1.4,1.1,2.8,1.8,3.7,2.9c3.7,4.5,7.3,9.2,10.9,13.7
		c1.8,2.2,3.6,4.3,5.5,6.5c0.3-0.1,0.5-0.3,0.8-0.4c0.5-2.5,1.8-5.1,0.1-7.7c-3-4.5-6-9-9.5-13.1c-1.6-1.9-4.2-3.7-6.6-4.3
		c-5.3-1.3-10.8-2-15.2-5.7C83.9,99.9,83.7,100,83.2,100.1z M94.3,59.8c-0.4,0-0.8,0.1-1.2,0.1c-1.9,3.5-4.1,6.8-5.7,10.4
		c-0.6,1.3-0.4,4,0.5,4.9c4,3.7,8.4,6.9,12.6,10.3c0.4-0.3,0.7-0.5,1.1-0.8c-0.5-1.1-0.8-2.4-1.7-3.2c-2-2-4.4-3.5-6.2-5.6
		c-1.4-1.5-2.3-3.5-3.4-5.3c0.1,0,0.3,0,0.4,0c3.8,3,7.7,6,11.9,9.3c1.1-3.7,2.4-6.8,0.6-9.5C100.6,66.6,97.3,63.3,94.3,59.8z
		 M152.6,59.7c-0.4,0-0.8,0.1-1.2,0.1c-2.4,2.7-4.7,5.6-7.2,8.1c-3.5,3.4-2.4,7.2-1.7,11c0.3,0.2,0.6,0.4,0.8,0.6
		c3.8-3.1,7.7-6.1,11.4-9.1c-0.2,2.3-1.6,4.5-3.7,6.3c-1.9,1.7-4,3.1-5.7,4.9c-0.8,0.8-1,2.1-1.4,3.2c0.4,0.2,0.8,0.5,1.1,0.7
		c4.3-3.5,8.6-6.9,12.8-10.6c0.7-0.6,1-2.4,0.6-3.3C156.7,67.5,154.6,63.6,152.6,59.7z M128.4,108.7c0.4,0.1,0.7,0.3,1.1,0.4
		c3.5-6,7.2-12.1,10.5-18.2c0.5-0.9-0.2-2.5-0.3-3.8c-0.3-0.1-0.6-0.2-0.9-0.3c-2.8,2.9-5.7,5.7-8.5,8.7
		C126.6,99.5,127.2,104.1,128.4,108.7z M106.3,87.4c-1.7,3.5,4.9,16.8,10.3,21.3C120.4,100.6,116.5,94.9,106.3,87.4z M121.2,133.8
		c0.2,0.1,0.5,0.2,0.7,0.3c1.5-3.6,3.8-7.1,3.3-11.2c-0.5-4.5-1.6-8.9-2.4-13.4c-1.7,2.5-1.9,5.5-1,8.1c1.8,4.9,1.6,9.6-0.2,14.4
		C121.4,132.5,121.4,133.2,121.2,133.8z M80.7,94.9c4.6,3.3,10.3,4,15.5,5.9C92.5,94.9,85.6,97.4,80.7,94.9z M149.3,100.5
		c3.3,0.2,14.8-4.2,15.6-6.2C159.8,97.1,153.3,95.1,149.3,100.5z"/>
	<path class="st1" d="M210.6,115.9c-3.5,4.2-8.8,4.8-13.1,1.6C199.7,114.5,205.3,113.8,210.6,115.9z"/>
	<path class="st1" d="M140.1,29.4c0.9,5.7-0.2,10.7-3.6,15.3C134.1,40.9,136,32.7,140.1,29.4z"/>
	<path class="st1" d="M34.8,115.7c4.8-1.1,9.2-1.8,13.3,1.3C44.7,120.7,38.7,120.3,34.8,115.7z"/>
	<path class="st1" d="M105.8,29.8c3.6,3,5.4,10.4,3.5,14.3C105.9,41.7,104,33.8,105.8,29.8z"/>
	<path class="st1" d="M89.2,56.9c-1.9,2.1-3.6,4.4-5.7,6.3c-3.4,2.9-6.1,5.9-3.9,11.3c-3.7-3.6-3.2-8.3,0.8-11.8
		c2.6-2.3,5.4-4.2,8.1-6.3C88.8,56.5,89,56.7,89.2,56.9z"/>
	<path class="st1" d="M166.4,73.8c1.2-4.3-0.2-7.4-3.6-10c-2.2-1.7-3.9-4-5.8-6.1c0.3-0.3,0.6-0.6,0.9-0.9c3.1,2.7,6.6,5.2,9.4,8.3
		C169.6,67.7,169,71.1,166.4,73.8z"/>
	<path class="st1" d="M122.8,32.8c3,3.5,3,8.7,0.3,12.1C119.9,43.2,119.6,36.9,122.8,32.8z"/>
	<path class="st1" d="M100.3,35.8c2.9,3.9,3.2,10.3,0.7,13.9C98.5,47,98,39.7,100.3,35.8z"/>
	<path class="st1" d="M38.2,103.9c-3.8,1.1-9.8-1.4-11.3-4.3c-0.2-0.4-0.4-1.2-0.2-1.5c0.2-0.3,1-0.6,1.4-0.5
		C32,98.6,35.5,100.2,38.2,103.9z"/>
	<path class="st1" d="M145.3,35.6c2,5,1.8,9.5-0.4,14.1C141.9,46.7,142.1,39.8,145.3,35.6z"/>
	<path class="st1" d="M207.3,104c3.2-3.9,6.8-6,11.5-6.5C219,101.5,212.7,105.1,207.3,104z"/>
	<path class="st1" d="M93.5,44.8c-2.7-2.3-5.5-4.5-8-7C85,37.3,85.1,36,85,35.1c0.9,0.1,1.9-0.1,2.6,0.3c3.3,1.9,5.4,4.9,6.9,8.3
		C94,44.2,93.8,44.5,93.5,44.8z"/>
	<path class="st1" d="M173.6,75.8c2.4-4.4,7.8-5.7,12.2-2.9C182.1,75.6,178.3,76.3,173.6,75.8z"/>
	<path class="st1" d="M151.1,44.7c1.8-4.9,4.5-8.2,8.9-10C161.8,37.6,158.7,41,151.1,44.7z"/>
	<path class="st1" d="M164.1,148.7c1.4-4.4,2.4-8.7,6.8-11.2C172.2,141.8,169.4,146.5,164.1,148.7z"/>
	<path class="st1" d="M39.6,108.3c-3.5,1-7,2-10.6,2.8c-0.6,0.2-1.5-0.5-2.2-0.8c0.6-0.7,1-1.6,1.7-1.9c3.5-1.8,7.2-1.8,11-1
		C39.5,107.7,39.6,108,39.6,108.3z"/>
	<path class="st1" d="M49,141.7c2.5,1.3,4.6,2.7,4.4,5.8c-0.1,1.7-0.8,2.5-2.7,2C46.8,148.3,46,145.5,49,141.7z"/>
	<path class="st1" d="M206.4,107.3c3.8-0.8,7.6-0.8,11.2,1.3c0.6,0.3,0.9,1.1,1.3,1.6c-0.7,0.3-1.4,1.1-2,1
		c-3.6-0.8-7.2-1.8-10.8-2.7C206.2,108.1,206.3,107.7,206.4,107.3z"/>
	<path class="st1" d="M71.8,75.2c-3.2,1.6-8.5,0.4-11.4-2.5C63.6,70.1,69.6,71.4,71.8,75.2z"/>
	<path class="st1" d="M81.6,148.5c-5.1-1.7-8.1-6.6-6.7-10.9C79.1,140,79.9,144.1,81.6,148.5z"/>
	<path class="st1" d="M199,145.9c-1.4,1.2-2.5,2.4-3.9,3.2c-0.6,0.4-2.5-0.1-2.5-0.2c-0.1-1.5,0.1-3,0.3-4.4c0-0.3,0.4-0.7,0.7-0.9
		c1-0.6,2.5-1.9,2.9-1.6C197.4,142.8,197.9,144.2,199,145.9z"/>
	<path class="st1" d="M217,88.5c-4.1,1.7-8,2-12.1,0.3C207.3,85.3,213.2,85.2,217,88.5z"/>
	<path class="st1" d="M40.6,88.6c-4.3,2-8.1,1.7-12.1,0.1C31.5,85.4,37.2,85.2,40.6,88.6z"/>
	<path class="st1" d="M196.6,126.6c-4.6,0.8-9.2,1.7-14.5,2.6c2.8-4.1,10.1-5.5,14.4-3.4C196.5,126,196.5,126.3,196.6,126.6z"/>
	<path class="st1" d="M196.1,61.8c-1.9,2.9-6.5,3.4-10.9,1.1C187.8,59.6,193,59.1,196.1,61.8z"/>
	<path class="st1" d="M60.7,62.7c-4.3,2.3-8.7,2-11.1-0.7C51.9,59.2,56.5,59.4,60.7,62.7z"/>
	<path class="st1" d="M48.4,126.2c4.9-2.4,11.4-1.3,14.7,2.2C58,129.5,53.6,127.2,48.4,126.2z"/>
	<path class="st1" d="M85,46c3.9-0.4,7.1-0.2,9.6,2c0.8,0.7,0.7,2.2,1.1,3.4c-1-0.1-2.3,0.2-3.1-0.3C90.2,49.6,87.9,47.9,85,46z"/>
	<path class="st1" d="M179.4,45.6c-2.1,2.5-5.4,2.8-10.7,0.8C170.9,43,176.7,42.6,179.4,45.6z"/>
	<path class="st1" d="M77.2,46.1c-3.4,1.4-6.4,2.1-9.6,1c-0.7-0.2-1.1-1.1-1.6-1.6c0.5-0.5,1-1.1,1.6-1.3
		C70.9,43.2,74.1,43.5,77.2,46.1z"/>
	<path class="st1" d="M160.2,46.4c-2.8,1.8-5.4,3.6-8.1,5.1c-0.6,0.3-1.7-0.1-2.5-0.2c0.2-0.8,0.1-1.8,0.6-2.5
		C151.9,46.4,156.4,45.3,160.2,46.4z"/>
	<path class="st1" d="M84.9,42.5c-2.7,0-5.5,0.1-8.2-0.1c-0.7-0.1-1.4-1.1-2.1-1.7c0.8-0.6,1.4-1.6,2.3-1.8c3.2-0.6,5.8,0.9,8.2,2.8
		C85,42,84.9,42.3,84.9,42.5z"/>
	<path class="st1" d="M146.8,26.6c4.1,2.8,5.1,6.7,5.6,11C148.4,35.5,145.6,30.2,146.8,26.6z"/>
	<path class="st1" d="M195.6,112.9c1.8-3.6,6.6-4.3,10.5-1.4C203.4,113.9,198.2,114.6,195.6,112.9z"/>
	<path class="st1" d="M171,41.4c-3.4,2.1-6.8,1.7-10.3,0.8C163.6,38.1,168.8,37.6,171,41.4z"/>
	<path class="st1" d="M38.6,112.3c3.3-3.5,8.2-2.7,10.2-1.2c0.5,0.4,0.8,1.2,1.1,1.7c-0.6,0.3-1.2,1-1.8,1
		C45.2,113.5,42.3,112.9,38.6,112.3z"/>
	<path class="st1" d="M93.6,37.4C93,33,95,28.9,98.5,26.9C99.9,29.7,97.8,34.3,93.6,37.4z"/>
	<path class="st1" d="M75.7,63.2c-3.6,1-6.5-0.2-7.3-2.9c-0.6-2,0.2-2.8,2.2-2.6C72.8,58,74.9,60.3,75.7,63.2z"/>
	<path class="st1" d="M177.4,57.8c0.8,4.3-3.5,7-7,5.4C170.9,59.4,173.2,57.5,177.4,57.8z"/>
	<path class="st1" d="M204,123.4c4.6-1.6,8,0.3,11.7,1.9C213.1,127.9,207.7,127,204,123.4z"/>
	<path class="st1" d="M54.9,71.1c3.7,1.7,5.3,4.7,6.6,8.1C56.8,79.2,53.7,75.5,54.9,71.1z"/>
	<path class="st1" d="M40.8,123.7c-2.6,3-8.2,4.1-10.7,2C33,123,38.3,122.1,40.8,123.7z"/>
	<path class="st1" d="M60.5,97.4c5-2,9.1-1.3,11.3,2C67.8,101,64.3,99.6,60.5,97.4z"/>
	<path class="st1" d="M197,135.2c3-1.5,6.6-0.2,10,3.5C204.2,140.4,199.3,138.7,197,135.2z"/>
	<path class="st1" d="M132.5,83.7c-2.2-4.1-1.6-8.1,0.3-12.1C134.4,75.6,134.6,79.7,132.5,83.7z"/>
	<path class="st1" d="M38.7,138.9c2.3-3.6,6.9-5.3,9.6-3.6C46.4,138.6,42.3,140.1,38.7,138.9z"/>
	<path class="st1" d="M129.3,43.5c0.6,2.7-0.2,5.1-2.1,7.1c-0.5,0.6-1.6,0.7-2.3,1c-0.2-0.9-0.9-2-0.6-2.5c1.2-2.1,2.6-4,4-6.1
		C128.6,43.1,128.9,43.3,129.3,43.5z"/>
	<path class="st1" d="M173.6,99.7c2.1-3.5,6.7-4.4,10.9-2.2C181.2,99.8,177.8,100.6,173.6,99.7z"/>
	<path class="st1" d="M184.1,79.1c1.4-3.4,3.2-6.1,6.4-7.8C192.1,75.5,188.9,79.3,184.1,79.1z"/>
	<path class="st1" d="M194.9,83.5c3.4-2.5,7.4-2.2,9.8,0.6C202.5,86.6,198.7,86.3,194.9,83.5z"/>
	<path class="st1" d="M157.3,51.6c3.2-2.1,6.2-1.9,9-0.2c0.6,0.3,0.9,1.2,1.3,1.9c-0.7,0.3-1.6,1-2.2,0.8
		C162.6,53.3,160,52.4,157.3,51.6z"/>
	<path class="st1" d="M170.4,111c-0.9-4-1.8-8.4-2.8-12.8C172.2,100.5,173.3,107.3,170.4,111z"/>
	<path class="st1" d="M51.1,83.4c-3,1.8-5.6,2.8-8.6,2.1c-0.6-0.2-1.1-0.8-1.7-1.3c0.5-0.5,0.8-1.3,1.4-1.6
		C45.1,81.4,47.8,81.6,51.1,83.4z"/>
	<path class="st1" d="M88,51.5c-2.5,0.9-5,1.8-7.5,2.5c-0.7,0.2-1.7-0.4-2.5-0.7c0.5-0.8,0.9-1.8,1.6-2.2C82.2,49.6,85,49.5,88,51.5
		z"/>
	<path class="st1" d="M112.9,83.1c-2.1-3.1-2.1-8.1,0.1-11.3C115,74.7,114.9,80,112.9,83.1z"/>
	<path class="st1" d="M202.5,105.2c-0.3-5.6,1.9-7.8,7.9-7.9C207.4,100.3,204.9,102.7,202.5,105.2z"/>
	<path class="st1" d="M75.2,111.1c-2.7-4.5-1.6-10.3,2.6-13C76.9,102.5,76.1,106.8,75.2,111.1z"/>
	<path class="st1" d="M43.3,105.6c-2.9-2.9-5.3-5.3-8.1-8.1C40.9,97.2,43.4,99.7,43.3,105.6z"/>
	<path class="st1" d="M116.7,43.5c4.5,2.9,5.5,4.6,4.6,7.9C118,51.2,115.9,47.7,116.7,43.5z"/>
	<path class="st1" d="M67.9,66.4c-2.6,0.9-5.1,1.9-7.7,2.7c-0.5,0.2-1.3-0.5-1.9-0.8c0.3-0.6,0.5-1.5,1-1.8c2.6-1.5,5.3-1.8,8.2-1.1
		C67.6,65.7,67.7,66,67.9,66.4z"/>
	<path class="st1" d="M187.8,68.4c-4.1,1.3-6.7-1-9.9-2.5C181.4,64.3,185.3,65.2,187.8,68.4z"/>
	<path class="st1" d="M25,120c2.7-2.4,5.3-2.3,8.3,0.4C31.2,122.6,27.8,122.5,25,120z"/>
	<path class="st1" d="M57.9,57.9c3.8-1.5,7.4,0.5,8.3,4.7C62.9,61.7,60.1,60.5,57.9,57.9z"/>
	<path class="st1" d="M201.4,76.1c3-0.7,5.7-0.8,8.2,1.1C207.7,80.6,204.6,80.3,201.4,76.1z"/>
	<path class="st1" d="M187.6,58.5c-2.6,1.4-5.1,2.9-8,4.5c0.3-4.4,3.9-6.6,7.5-5.4C187.3,57.9,187.5,58.2,187.6,58.5z"/>
	<path class="st1" d="M44.1,77.2c-1.8,0.8-3.5,1.8-5.3,2.2c-0.7,0.2-1.7-1.1-2.5-1.7c0.7-0.6,1.3-1.5,2-1.7c1.8-0.3,3.7-0.3,5.5-0.4
		C43.9,76.2,44,76.7,44.1,77.2z"/>
	<path class="st1" d="M212,120.7c3.2-2.9,5.9-3.1,8.4-0.8C218.4,122.3,215.7,122.6,212,120.7z"/>
	<path class="st1" d="M112.4,29.6c0.7-2.5,1.9-4.6,4.7-5.4c0.6-0.2,1.4,0.4,2.2,0.6c-0.3,0.6-0.3,1.5-0.8,1.9
		c-1.8,1.3-3.7,2.4-5.5,3.6C112.8,30.1,112.6,29.9,112.4,29.6z"/>
	<path class="st1" d="M126.1,24.7c3.4-1,5.7,0.8,7.1,5.1C130.4,29.8,127.3,27.6,126.1,24.7z"/>
	<path class="st1" d="M42,72.2c3.5-1.7,6.5-1.1,8.8,1.7C48.5,75.5,44.6,74.8,42,72.2z"/>
	<path class="st1" d="M31.4,139.9c1.4-3.9,3.7-5.7,6.5-5.2C37.2,138.2,34.7,140.2,31.4,139.9z"/>
	<path class="st1" d="M197.6,67.4c3.9-2.1,7.3-1.5,9.6,1.5C203.7,71,201.1,68.1,197.6,67.4z"/>
	<path class="st1" d="M38.5,68.6c2.2-2.7,5.2-3.2,8.9-1.7C44.7,69.2,40.7,70.1,38.5,68.6z"/>
	<path class="st1" d="M203.9,72.2c-3.7,2.6-6.4,3.1-9.1,1.9C196.3,71.5,199.8,70.7,203.9,72.2z"/>
	<path class="st1" d="M48.4,92.1c0.8-3.1,1.6-6,4.8-7.3C54.5,87.8,52.7,90.6,48.4,92.1z"/>
	<path class="st1" d="M181.9,82.5c-3.8,1.2-6.1,0.3-7.7-3C176.4,78.1,178.5,78.9,181.9,82.5z"/>
	<path class="st1" d="M178.5,50.1c-1,3-2.1,5.4-5.1,6.4C172.4,52.6,174.2,50.2,178.5,50.1z"/>
	<path class="st1" d="M214.1,140.2c-3.7-0.3-5.9-2.2-6.4-5.4C210.6,134.2,213,136.1,214.1,140.2z"/>
	<path class="st1" d="M75.9,55c2,1.1,3.7,1.8,5.2,2.8c0.4,0.3,0.7,1.2,0.6,1.7c-0.2,0.4-1,0.7-1.6,0.8C77.4,60.6,75.5,58.5,75.9,55z
		"/>
	<path class="st1" d="M170.2,55.1c-0.3,3.8-1.6,5.3-4,5.2c-0.7,0-1.3-0.4-2-0.7c0.3-0.7,0.4-1.8,0.9-2.1
		C166.5,56.6,168.1,56,170.2,55.1z"/>
	<path class="st1" d="M187.1,53.4c3.4-3.3,5.9-2.4,6.9,2.3C191.4,54.9,189.2,54.1,187.1,53.4z"/>
	<path class="st1" d="M67,50.2c4.4,0,5.9,1.9,5,6C69,55.3,68.1,52.9,67,50.2z"/>
	<path class="st1" d="M45.7,141.2c-0.7,3.1-2,5.3-4.9,6.4C39.8,144.5,41.7,141.9,45.7,141.2z"/>
	<path class="st1" d="M71.5,79.3c-1.6,3.3-4,4.2-7.5,3.1C66.8,79.1,68.9,78.2,71.5,79.3z"/>
	<path class="st1" d="M51.9,55.1c0.8-4.1,3.3-5,6.9-2.5C56.8,54.6,54.6,55.4,51.9,55.1z"/>
	<path class="st1" d="M112.6,35.1c1-3,2.7-4.1,6.1-4C118.4,34.2,115.9,35.9,112.6,35.1z"/>
	<path class="st1" d="M196.7,91.7c-3.5-1-5.2-3.3-4.6-6.5C194.9,85.7,196.3,87.7,196.7,91.7z"/>
	<path class="st1" d="M195.4,139.4c-2.1,1.1-4.2,2.2-6.2,3.3c-0.3-0.3-0.6-0.6-0.9-0.9c0.8-1.1,1.5-2.5,2.6-3.2s2.7-0.6,4.1-0.9
		C195.1,138.3,195.3,138.8,195.4,139.4z"/>
	<path class="st1" d="M199.9,141.3c3.3,0.2,5.3,2.6,4.9,6C201.9,147,200.1,144.7,199.9,141.3z"/>
	<path class="st1" d="M56.5,142.7c-1.7-0.8-3.5-1.5-5.1-2.4c-0.5-0.3-0.7-1.2-1-1.8c0.7-0.2,1.5-0.8,2.2-0.7
		c2.4,0.4,3.8,1.9,4.5,4.1C56.9,142.2,56.7,142.5,56.5,142.7z"/>
	<path class="st1" d="M126.5,31.4c3.6-0.4,5.8,0.9,6.4,3.8C130,35.9,127.6,34.5,126.5,31.4z"/>
	<path class="st1" d="M198,63.5c1.2-3.5,3.3-4.8,6.4-4C203.2,62.2,201,63.1,198,63.5z"/>
	<path class="st1" d="M73,72.5c-3.6-3-3.4-4.8,0.8-7.1C73.5,67.9,73.3,69.9,73,72.5z"/>
	<path class="st1" d="M62.7,140.8c-3.3-0.2-5.1-1.7-5.4-4.3C60.3,136.3,61.7,137.4,62.7,140.8z"/>
	<path class="st1" d="M183.1,140.6c0.8-3.3,2.5-4.7,5.3-4C187.7,139.4,185.9,140.7,183.1,140.6z"/>
	<path class="st1" d="M172.9,65.7c0.8,1,2.2,1.9,2.3,2.9c0.1,1.2-0.9,2.4-1.4,3.7c-0.4-0.1-0.7-0.2-1.1-0.2
		c-0.3-1.9-0.6-3.8-0.8-5.7C172.3,66,172.6,65.8,172.9,65.7z"/>
	<path class="st1" d="M47.3,63c-3.1,0.1-4.4-0.6-5.7-3.4C44.3,58.8,46.3,59.9,47.3,63z"/>
	<path class="st1" d="M138.7,49c1,0.8,2.2,1.5,3,2.5c0.4,0.5-0.1,1.6-0.2,2.4c-0.7-0.2-1.8-0.2-2.1-0.6c-0.7-1.1-1.1-2.4-1.6-3.6
		C138.1,49.4,138.4,49.2,138.7,49z"/>
	<path class="st1" d="M197.4,79.8c-2.3,0.9-4.6,1.7-7.4,2.8c1.5-3.1,4.1-4.3,7.1-3.7C197.2,79.2,197.3,79.5,197.4,79.8z"/>
	<path class="st1" d="M174.9,103.1c2.6-1.8,3.8-1.6,5.7,0.5C178.5,105.6,177.1,105.5,174.9,103.1z"/>
	<path class="st1" d="M48.8,79c2.9-0.8,5,0.7,6.8,2.7c-0.1,0.3-0.2,0.5-0.3,0.8c-2.3-0.8-4.6-1.6-6.9-2.5
		C48.6,79.6,48.7,79.3,48.8,79z"/>
	<path class="st1" d="M114.6,51.5c1.2,1.1,2.5,2,3.6,3.2c0.3,0.3-0.2,1.3-0.3,2c-0.6-0.1-1.4-0.1-1.7-0.4c-0.9-1.2-1.7-2.6-2.5-3.9
		C113.9,52.1,114.3,51.8,114.6,51.5z"/>
	<path class="st1" d="M107.6,49.1c-0.1,1.1,0,1.9-0.4,2.5c-0.6,0.9-1.4,1.8-2.2,2.5c-0.1,0.1-1.4-0.8-1.4-0.8c0.5-1.1,1-2.3,1.7-3.2
		C105.7,49.5,106.6,49.5,107.6,49.1z"/>
	<path class="st1" d="M131.6,52.5c-0.5,1.1-0.8,2.3-1.6,3.2c-0.6,0.6-1.7,0.7-2.6,1c0.1-0.9-0.2-2.1,0.3-2.7c0.8-1,2.1-1.5,3.3-2.2
		C131.2,52,131.4,52.3,131.6,52.5z"/>
	<path class="st1" d="M55.7,93.9c-1.5-2.1-1.3-3.9,1-6.3C58,89.8,57.7,91.9,55.7,93.9z"/>
	<path class="st1" d="M189.1,87.6c2.3,2.5,2.5,4.3,0.2,7c-0.4-2.7-0.7-4.8-1.1-6.9C188.5,87.7,188.8,87.7,189.1,87.6z"/>
	<path class="st1" d="M41.8,91.5c1.1-1.2,2.3-2.5,3.4-3.7c0.3,0,0.5,0,0.8,0.1c0.1,0.8,0.6,2,0.2,2.3c-1,1-2.3,1.7-3.5,2.6
		C42.4,92.3,42.1,91.9,41.8,91.5z"/>
	<path class="st1" d="M70.4,103.4c-1.7,1.8-3.4,2.2-5.5,0.6C66.4,101.4,68.3,101.2,70.4,103.4z"/>
	<path class="st1" d="M200.3,87.3c1.2,1.3,2.4,2.6,3.5,3.9c-0.1,0.3-0.3,0.6-0.4,0.9c-1-0.2-2.4-0.1-3.1-0.8c-0.8-0.7-1-2.1-1.4-3.2
		C199.4,87.9,199.8,87.6,200.3,87.3z"/>
	<path class="st1" d="M173,81c-1.5,1.9-2.6,3.4-4,5.3C168.2,82.4,169,81.4,173,81z"/>
	<path class="st1" d="M184.6,52.6c-1.6,1-3.2,2-5.3,3.3c0.9-3.7,2.1-4.5,4.9-4.1C184.4,52.1,184.5,52.4,184.6,52.6z"/>
	<path class="st1" d="M76.9,86.4c-1.6-2-2.7-3.5-4-5.2C76.4,81,77.6,82.4,76.9,86.4z"/>
	<path class="st1" d="M211.3,131.5c-2.6,0-4.6,0-7,0C206.6,129.3,208.6,129.3,211.3,131.5z"/>
	<path class="st1" d="M40.5,131.6c-1.9,0-3.8,0-5.7,0c0-0.4,0-0.9,0-1.3c1.9-0.1,3.8-0.2,5.7-0.3C40.5,130.5,40.5,131,40.5,131.6z"
		/>
	<path class="st1" d="M66.4,55.9c-2.2-1.3-3.8-2.3-5.8-3.5C63.8,51.3,65.4,52.2,66.4,55.9z"/>
	<path class="st1" d="M78.4,83.7c0.7-1.5,1.5-3,2.4-4.9C82.4,81.8,81.7,83.4,78.4,83.7z"/>
	<path class="st1" d="M165.8,84.6c-0.7-1.5-1.5-3-2.2-4.5c0.3-0.2,0.7-0.4,1-0.6c2,0.8,2.4,2.5,2.3,4.5
		C166.5,84.3,166.1,84.4,165.8,84.6z"/>
	<path class="st1" d="M59.3,91.3c0.3-0.9,0.5-1.9,1.1-2.7c0.4-0.5,1.3-0.6,1.9-0.8c-0.1,0.7,0.1,1.6-0.2,2.1
		c-0.5,0.7-1.5,1.2-2.2,1.8C59.6,91.6,59.5,91.4,59.3,91.3z"/>
	<path class="st1" d="M185.4,91.8c-0.8-1.1-1.7-2.2-2.4-3.3c0-0.1,0.7-0.6,1.1-1c0.8,1.1,1.6,2.2,2.4,3.3
		C186.2,91.2,185.8,91.5,185.4,91.8z"/>
	<path class="st1" d="M114.4,40.7c0,1.9,0,3.8,0,5.7c-0.2,0-0.5,0-0.7,0c0-1.9,0-3.8,0-5.7C113.9,40.7,114.1,40.7,114.4,40.7z"/>
	<path class="st1" d="M131.6,46.4c0-1.7,0-3.4,0-5.2c0.2,0,0.4,0,0.6,0c0,1.7,0,3.4,0,5.2C132,46.4,131.8,46.4,131.6,46.4z"/>
	<path class="st1" d="M92.3,64.9c3.7,0.8,4.5,1.9,3.7,5C93.1,69.5,93.1,67.1,92.3,64.9z"/>
	<path class="st1" d="M153.6,65.5c-1,1.4-1.9,2.8-2.9,4c-0.2,0.3-1,0.2-1.4,0c-0.2-0.1-0.4-0.8-0.3-1.2c0.5-2.1,1.8-3.2,3.8-3.6
		C153.1,65,153.4,65.3,153.6,65.5z"/>
</g>
<rect x="-27.3" y="-136" class="st2" width="64" height="64"/>
<rect x="78.1" y="-130.4" class="st3" width="64" height="64"/>
</svg>
